<?xml version="1.0" standalone="no"?>
<!DOCTYPE svg PUBLIC "-//W3C//DTD SVG 20010904//EN"
 "http://www.w3.org/TR/2001/REC-SVG-20010904/DTD/svg10.dtd">
<svg version="1.0" xmlns="http://www.w3.org/2000/svg"
 width="806.000000pt" height="599.000000pt" viewBox="0 0 806.000000 599.000000"
 preserveAspectRatio="xMidYMid meet">

<g transform="translate(0.000000,599.000000) scale(0.100000,-0.100000)"
fill="#000000" stroke="none">
<path d="M1556 5979 c-105 -25 -229 -126 -280 -228 -25 -50 -73 -191 -105
-311 -34 -127 -83 -351 -78 -356 2 -3 51 0 108 6 182 19 465 23 672 11 110 -7
200 -11 203 -9 2 2 -7 118 -20 258 -27 282 -41 339 -113 447 -42 64 -171 166
-231 183 -44 12 -102 12 -156 -1z"/>
<path d="M6339 5977 c-49 -19 -163 -101 -198 -145 -44 -52 -89 -141 -106 -208
-15 -61 -60 -523 -51 -531 2 -3 81 0 174 6 229 15 411 14 626 -4 99 -8 182
-13 184 -10 8 7 -89 395 -129 520 -47 141 -86 210 -154 273 -99 89 -253 134
-346 99z"/>
<path d="M1505 5039 c-106 -9 -237 -46 -340 -95 l-75 -35 0 -44 c0 -41 -2 -44
-32 -50 -45 -10 -58 -22 -84 -81 -12 -28 -61 -109 -107 -180 -206 -314 -309
-546 -381 -859 -45 -196 -65 -270 -121 -450 -79 -252 -140 -509 -224 -935
-109 -559 -116 -611 -132 -1025 -14 -345 -9 -436 30 -588 69 -269 180 -448
348 -558 170 -111 384 -162 533 -128 66 15 218 90 307 151 100 68 236 205 301
301 133 200 320 627 524 1202 20 56 33 76 67 102 24 18 53 33 66 33 13 0 54
-23 92 -52 141 -107 295 -158 476 -158 176 0 334 55 466 161 l61 49 179 0
c109 0 182 -4 186 -10 8 -14 762 -14 770 0 4 6 77 10 186 10 l179 0 61 -49
c132 -106 290 -161 466 -161 181 0 337 52 475 158 39 30 78 52 92 52 13 0 43
-15 66 -33 40 -30 46 -42 105 -207 182 -508 352 -893 482 -1088 164 -248 465
-454 684 -469 194 -14 450 91 587 241 119 131 201 320 247 571 14 73 16 127
11 310 -15 506 -28 618 -131 1145 -93 472 -153 721 -265 1085 -17 55 -55 201
-85 325 -31 131 -70 268 -94 328 -75 187 -198 417 -308 574 -29 42 -63 99 -75
125 -33 76 -54 100 -93 107 -33 7 -35 9 -35 46 0 47 -22 65 -134 110 -130 52
-241 72 -406 71 -158 0 -280 -18 -381 -53 l-64 -23 -3 -66 -3 -67 -40 -6 c-24
-4 -58 -20 -81 -39 l-40 -32 -222 -3 c-183 -2 -223 -5 -233 -18 -10 -13 -14
-12 -37 10 l-25 26 -1270 0 -1269 0 -30 -25 c-24 -20 -31 -22 -36 -10 -4 13
-38 15 -215 15 -219 0 -244 4 -293 45 -16 14 -47 28 -69 31 l-39 7 0 58 c0 49
-4 60 -22 74 -79 55 -346 91 -553 74z m759 -368 c4 -5 -3 -7 -14 -4 -11 3 -20
1 -20 -5 0 -5 9 -12 20 -15 29 -8 26 -37 -4 -37 -14 0 -27 4 -30 9 -3 4 6 6
19 3 15 -2 25 0 25 7 0 6 -9 11 -19 11 -22 0 -35 15 -26 30 8 12 42 13 49 1z
m57 -21 c10 0 19 7 19 15 0 8 5 15 10 15 6 0 10 -16 10 -35 0 -19 -4 -35 -10
-35 -5 0 -10 7 -10 15 0 21 -38 19 -43 -2 -3 -10 -5 0 -5 22 0 22 2 32 5 23 2
-10 13 -18 24 -18z m108 -1 c14 -41 14 -41 -8 -27 -15 9 -23 9 -36 -2 -14 -12
-15 -10 -5 15 21 56 33 59 49 14z m88 -9 c1 -19 -1 -27 -3 -17 -3 9 -14 17
-24 17 -10 0 -21 -8 -23 -17 -3 -10 -5 -1 -6 20 -1 36 1 38 27 35 23 -3 27 -8
29 -38z m73 33 c-43 -14 -44 -16 -15 -23 l30 -8 -27 -1 c-16 0 -28 -5 -28 -10
0 -5 12 -12 28 -14 25 -4 25 -4 -5 -6 -31 -1 -33 1 -33 34 0 33 2 35 33 34 17
0 25 -3 17 -6z m2875 -28 c0 -24 -5 -31 -24 -33 -32 -5 -54 23 -40 50 7 13 19
18 37 16 23 -2 27 -8 27 -33z m83 13 c2 -10 -1 -18 -7 -18 -6 0 -8 7 -5 15 4
10 0 15 -16 15 -16 0 -20 -5 -16 -17 3 -10 1 -25 -4 -33 -7 -11 -10 -5 -10 23
0 36 2 38 27 35 17 -2 29 -10 31 -20z m70 15 c-12 -3 -19 -15 -20 -36 l-1 -32
-4 32 c-3 19 -11 34 -21 36 -9 3 1 5 23 5 22 0 32 -2 23 -5z m29 -45 c-2 -13
-4 -5 -4 17 -1 22 1 32 4 23 2 -10 2 -28 0 -40z m94 36 c17 -21 0 -49 -31 -49
-31 0 -48 28 -31 49 8 9 21 16 31 16 10 0 23 -7 31 -16z m82 -8 c3 25 4 24 6
-8 1 -43 -8 -48 -28 -15 l-15 22 -7 -25 c-6 -21 -7 -18 -8 15 l0 40 24 -29 23
-29 5 29z m81 15 c3 -4 -6 -6 -19 -3 -32 6 -32 -6 0 -18 33 -12 33 -40 1 -40
-14 0 -27 4 -30 9 -3 4 6 6 19 3 15 -2 25 0 25 7 0 6 -9 11 -19 11 -22 0 -35
15 -26 30 8 12 42 13 49 1z m784 -657 c-3 -2 -80 -3 -171 -2 l-166 3 85 148
86 148 85 -146 c47 -80 83 -148 81 -151z m502 -315 c79 -44 114 -162 72 -239
-70 -128 -248 -134 -319 -12 -97 165 80 344 247 251z m-1100 -159 l0 -140
-140 0 -140 0 0 140 0 140 140 0 140 0 0 -140z m512 -513 l-62 -62 62 -62 c34
-34 59 -66 55 -70 -4 -4 -33 19 -65 50 -32 31 -62 57 -67 57 -5 0 -35 -25 -66
-56 -35 -35 -62 -54 -69 -49 -8 5 9 28 51 71 l63 64 -59 60 c-32 33 -56 63
-52 67 4 4 34 -20 67 -52 l60 -60 62 63 c42 41 66 58 72 52 7 -7 -10 -31 -52
-73z m-2561 -558 c48 -16 69 -38 69 -69 0 -30 -23 -56 -40 -45 -5 3 -10 24
-10 46 0 21 -4 39 -10 39 -5 0 -10 -24 -10 -52 l0 -53 52 3 c57 3 90 -10 73
-27 -6 -6 -37 -20 -69 -31 -54 -18 -62 -19 -89 -5 -17 8 -44 15 -61 15 -39 0
-65 15 -51 29 6 6 28 17 50 24 l40 14 3 61 c2 34 7 62 11 62 4 0 23 -5 42 -11z"/>
<path d="M2400 4650 c0 -5 5 -10 11 -10 5 0 7 5 4 10 -3 6 -8 10 -11 10 -2 0
-4 -4 -4 -10z"/>
<path d="M2470 4660 c0 -5 9 -10 20 -10 11 0 20 5 20 10 0 6 -9 10 -20 10 -11
0 -20 -4 -20 -10z"/>
<path d="M5417 4664 c-4 -4 -7 -16 -7 -26 0 -14 6 -19 23 -16 14 2 22 10 22
23 0 20 -25 32 -38 19z"/>
<path d="M5686 4654 c-8 -21 1 -34 24 -34 22 0 33 23 17 39 -16 16 -34 14 -41
-5z"/>
<path d="M6460 4153 c-30 -53 -56 -100 -58 -105 -2 -4 53 -8 122 -8 l125 0
-60 105 c-34 58 -64 105 -67 105 -4 0 -32 -44 -62 -97z"/>
<path d="M7045 3695 c-50 -18 -91 -62 -105 -114 -27 -103 53 -201 163 -201 82
0 157 75 157 157 0 116 -109 197 -215 158z"/>
<path d="M5830 3540 l0 -121 118 3 117 3 0 115 0 115 -117 3 -118 3 0 -121z"/>
<path d="M3951 2319 c-13 -5 -21 -12 -18 -15 9 -9 57 5 57 16 0 12 -7 12 -39
-1z"/>
<path d="M4073 2318 c-18 -6 -33 -15 -33 -20 0 -5 10 -6 23 -2 43 13 67 24 67
29 0 7 -20 5 -57 -7z"/>
</g>
</svg>
